<?xml version="1.0" encoding="UTF-8"?>
<svg width="256px" height="256px" viewBox="0 0 256 256" version="1.1" xmlns="http://www.w3.org/2000/svg" xmlns:xlink="http://www.w3.org/1999/xlink">
    <!-- Generator: Sketch 53.2 (72643) - https://sketchapp.com -->
    <title>icon</title>
    <desc>Created with Sketch.</desc>
    <g id="icon" stroke="none" stroke-width="1" fill="none" fill-rule="evenodd">
        <rect id="Rectangle" stroke="#979797" fill="#6EA644" x="-42.5" y="-49.5" width="340" height="367"></rect>
        <g id="Group" transform="translate(38.000000, 70.000000)" stroke="#FFFFFF">
            <g id="fast-forward" transform="translate(107.000000, 16.000000)" stroke-linecap="round" stroke-linejoin="round" stroke-width="4">
                <polygon id="Path" points="0 84 42 42 0 0"></polygon>
                <polygon id="Path-Copy-2" points="32 84 74 42 32 0"></polygon>
            </g>
            <path d="M93.2676136,35 L117,58.6653193 L58.5,117 L0,58.6653193 L23.5329545,35.1988682 M40,19 L59.2825897,0 L78,18.6358885" id="Shape" stroke-width="4" stroke-linecap="round" stroke-linejoin="round"></path>
            <path d="M75.6753731,53.9712482 C75.0597015,53.5539972 74.2223881,53.7258065 73.8037313,54.3394109 C71.3656716,57.9964937 66.1940299,58.1928471 65.9231343,58.1928471 C65.8738806,58.1928471 65.8492537,58.1928471 65.8,58.1928471 C59.4216418,58.1928471 56.9835821,63.6171108 56.8850746,63.8380084 C56.5895522,64.5252454 56.9097015,65.3106592 57.5746269,65.6051893 C57.7470149,65.6788219 57.9440299,65.7279102 58.1164179,65.7279102 C58.6335821,65.7279102 59.1261194,65.4333801 59.3477612,64.9179523 C59.3723881,64.868864 61.0470149,61.1381487 65.3567164,60.8927069 L65.3567164,67.8387097 C65.1843284,69.3359046 64.4701493,70.5140252 63.2141791,71.3976157 C61.9089552,72.3057504 60.1604478,72.7720898 58.0179104,72.7720898 C55.4567164,72.7720898 53.3634328,71.8884993 51.8119403,70.1458626 C50.2358209,68.4032258 49.4477612,65.9242637 49.4477612,62.7335203 L49.4723881,55.0757363 C49.5955224,52.2531557 50.3589552,50.0196353 51.8119403,48.4242637 C53.3880597,46.6816269 55.4567164,45.7980365 58.0179104,45.7980365 C60.1604478,45.7980365 61.9089552,46.2643759 63.2141791,47.1725105 C64.519403,48.0806452 65.258209,49.3323983 65.3813433,50.9523142 C65.3813433,51.0014025 65.3813433,51.0750351 65.3813433,51.1241234 C65.3813433,52.0568022 66.1447761,52.8176718 67.080597,52.8176718 C68.0164179,52.8176718 68.7798507,52.0568022 68.7798507,51.1241234 C68.7798507,51.0750351 68.7798507,51.0014025 68.7798507,50.9523142 C68.5335821,48.5224404 67.4253731,46.6079944 65.430597,45.1598878 C63.4358209,43.7117812 60.9485075,43 57.9440299,43 C54.3731343,43 51.491791,44.1781206 49.3,46.5098177 C47.2313433,48.6942496 46.1477612,51.5659187 46.0246269,55.1002805 C46.0246269,55.3457223 46,55.5911641 46,55.8366059 L46.0246269,62.7335203 L46,62.7335203 C46,66.6360449 47.108209,69.7531557 49.3,72.0848527 C51.491791,74.4165498 54.3731343,75.5946704 57.9440299,75.5946704 C60.9485075,75.5946704 63.4358209,74.8828892 65.430597,73.4347826 C67.2529851,72.1093969 68.3365672,70.3667602 68.7059701,68.2068724 L68.7798507,60.5 C71.0208955,59.9600281 74.0746269,58.7328191 75.9955224,55.8366059 C76.4880597,55.2230014 76.3156716,54.3884993 75.6753731,53.9712482 Z" id="Path" fill="#FFFFFF" fill-rule="nonzero"></path>
        </g>
    </g>
</svg>